<svg width="530" height="140" viewBox="0 0 530 140" fill="none" xmlns="http://www.w3.org/2000/svg">
<g clip-path="url(#clip0_49_108)">
<g filter="url(#filter0_d_49_108)">
<path d="M95.4168 114.75C84.3168 114.75 75.7168 111.8 69.6168 105.9C63.6168 100 60.6168 92.35 60.6168 82.95C60.6168 74.35 62.7168 65.95 66.9168 57.75C71.2168 49.55 76.6168 42 83.1168 35.1C88.4168 29.5 94.4668 24.65 101.267 20.55C108.167 16.45 115.367 13.25 122.867 10.95C130.467 8.64999 137.867 7.49999 145.067 7.49999C150.767 7.49999 155.917 8.3 160.517 9.9C165.117 11.4 168.767 13.8 171.467 17.1C174.167 20.4 175.517 24.7 175.517 30C175.517 34.7 174.367 39.1 172.067 43.2C169.867 47.2 166.867 50.7 163.067 53.7C159.367 56.7 155.267 59.05 150.767 60.75C146.267 62.45 141.717 63.3 137.117 63.3C131.117 63.3 126.067 61.95 121.967 59.25C117.867 56.45 115.817 52.95 115.817 48.75C115.817 43.35 119.267 38.05 126.167 32.85C127.367 31.95 128.317 31.5 129.017 31.5C129.517 31.5 129.767 31.7 129.767 32.1C129.767 33.1 128.967 33.9 127.367 34.5C121.767 39 118.967 43.55 118.967 48.15C118.967 51.45 120.467 54.25 123.467 56.55C126.467 58.75 130.217 59.85 134.717 59.85C138.717 59.85 142.717 59 146.717 57.3C150.817 55.6 154.567 53.3 157.967 50.4C161.367 47.5 164.067 44.25 166.067 40.65C168.167 36.95 169.217 33.1 169.217 29.1C169.217 22.6 167.017 17.85 162.617 14.85C158.217 11.85 152.617 10.35 145.817 10.35C138.117 10.35 130.467 11.8 122.867 14.7C115.367 17.6 108.317 21.6 101.717 26.7C95.1168 31.8 89.2168 37.65 84.0168 44.25C73.6168 57.35 68.4168 69.65 68.4168 81.15C68.4168 87.25 69.8168 92.45 72.6168 96.75C75.4168 100.95 79.2668 104.15 84.1668 106.35C89.1668 108.55 94.8668 109.65 101.267 109.65C110.767 109.65 119.967 107.6 128.867 103.5C137.767 99.3 145.367 93.7 151.667 86.7C153.367 84.9 154.617 84 155.417 84C156.017 84 156.317 84.45 156.317 85.35C156.317 86.55 155.767 87.7 154.667 88.8C151.267 92.4 147.217 95.75 142.517 98.85C137.817 101.95 132.767 104.7 127.367 107.1C122.067 109.5 116.667 111.35 111.167 112.65C105.667 114.05 100.417 114.75 95.4168 114.75ZM160.755 105.75C157.855 105.75 156.405 104.9 156.405 103.2C156.405 102.2 157.005 100.6 158.205 98.4C162.805 90.2 166.905 82.95 170.505 76.65C174.205 70.25 177.455 64.85 180.255 60.45C192.155 41.35 200.555 31 205.455 29.4C205.655 29.4 205.805 29.4 205.905 29.4C206.005 29.3 206.105 29.25 206.205 29.25C207.505 29.25 208.355 30.3 208.755 32.4C208.455 34.5 203.255 42.1 193.155 55.2C187.855 61.9 183.705 67.45 180.705 71.85C177.805 76.15 176.005 79.3 175.305 81.3C178.605 78.9 182.155 76.35 185.955 73.65C189.755 70.95 193.455 68.4 197.055 66C200.655 63.5 203.905 61.5 206.805 60C209.705 58.4 211.955 57.5 213.555 57.3C213.755 57.3 214.005 57.3 214.305 57.3C214.605 57.2 214.805 57.15 214.905 57.15C217.705 57.15 219.105 58.45 219.105 61.05C219.105 61.75 218.205 63.3 216.405 65.7C214.605 68.1 211.855 71.8 208.155 76.8C201.555 85.6 198.255 92.2 198.255 96.6C198.255 98.9 199.105 100.05 200.805 100.05C202.605 99.95 204.655 99.15 206.955 97.65C209.355 96.15 211.755 94.3 214.155 92.1C216.555 89.9 218.705 87.75 220.605 85.65C222.605 83.45 224.105 81.75 225.105 80.55C226.005 79.65 226.705 79.2 227.205 79.2C227.605 79.2 227.805 79.4 227.805 79.8C227.805 80.6 227.405 81.55 226.605 82.65C225.405 84.15 223.605 86.1 221.205 88.5C218.905 90.9 216.355 93.35 213.555 95.85C210.855 98.25 208.255 100.3 205.755 102C203.355 103.6 201.555 104.4 200.355 104.4C194.455 104.4 191.505 100.95 191.505 94.05C191.505 90.15 193.305 85.05 196.905 78.75C198.305 76.35 199.755 73.95 201.255 71.55C202.755 69.15 204.255 66.75 205.755 64.35C192.955 70.75 181.355 80.2 170.955 92.7C169.655 94.5 168.305 96.45 166.905 98.55C165.505 100.55 164.255 102.25 163.155 103.65C162.055 105.05 161.255 105.75 160.755 105.75ZM227.651 105.3C225.151 105.3 223.201 104.15 221.801 101.85C220.401 99.45 219.701 97.15 219.701 94.95C219.701 88.95 224.051 80.55 232.751 69.75C241.551 58.85 248.651 53.4 254.051 53.4C259.151 53.4 261.701 56.1 261.701 61.5C261.701 62.3 261.601 63.15 261.401 64.05C261.301 64.95 261.151 65.9 260.951 66.9C261.151 67.2 261.651 67.35 262.451 67.35C265.151 67.35 268.351 66.4 272.051 64.5C271.951 66.2 268.001 68.65 260.201 71.85C261.301 75.15 258.001 81.45 250.301 90.75C242.401 100.45 235.651 105.3 230.051 105.3H227.651ZM230.351 100.8C234.651 100.8 240.151 96.85 246.851 88.95C253.351 81.25 256.601 75.7 256.601 72.3C255.001 71.4 253.001 69.1 250.601 65.4C247.201 65.4 242.301 69.5 235.901 77.7C229.601 85.7 226.551 91.85 226.751 96.15C226.851 99.25 228.051 100.8 230.351 100.8ZM254.689 133.35C250.489 131.05 248.389 126.7 248.389 120.3C248.389 113.4 254.039 101.6 265.339 84.9C276.139 68.8 283.639 60.1 287.839 58.8C288.239 58.7 288.589 58.65 288.889 58.65C289.189 58.55 289.489 58.5 289.789 58.5C291.489 58.5 292.339 60.35 292.339 64.05C293.039 63.35 294.239 62.7 295.939 62.1C297.739 61.4 299.539 60.85 301.339 60.45C303.239 60.05 304.639 59.8 305.539 59.7C309.639 59.5 313.039 60.5 315.739 62.7C318.539 64.8 319.939 67.6 319.939 71.1C319.939 79.2 315.089 87.05 305.389 94.65C296.589 101.55 288.789 105 281.989 105C277.489 105 274.389 104.75 272.689 104.25C270.289 103.55 267.839 101.7 265.339 98.7C264.239 99.6 263.039 101.15 261.739 103.35C260.439 105.45 259.239 107.75 258.139 110.25C256.939 112.85 255.989 115.4 255.289 117.9C254.489 120.4 254.089 122.5 254.089 124.2C254.089 125.9 254.439 127.3 255.139 128.4C255.739 129.6 256.339 130.7 256.939 131.7C256.939 131.8 256.989 131.85 257.089 131.85C257.089 131.95 257.089 132 257.089 132C257.089 132.5 256.839 132.9 256.339 133.2C255.739 133.6 255.189 133.65 254.689 133.35ZM280.039 100.8C285.639 100.8 292.089 97.95 299.389 92.25C307.989 85.45 312.289 77.9 312.289 69.6C312.289 65.8 309.939 63.9 305.239 63.9C300.939 63.9 296.939 64.85 293.239 66.75C292.239 67.15 290.589 68.45 288.289 70.65C286.089 72.85 283.139 75.85 279.439 79.65C271.539 87.85 267.589 93.1 267.589 95.4C267.589 97.2 269.239 98.65 272.539 99.75C274.739 100.45 277.239 100.8 280.039 100.8ZM311.232 133.35C307.032 131.05 304.932 126.7 304.932 120.3C304.932 113.4 310.582 101.6 321.882 84.9C332.682 68.8 340.182 60.1 344.382 58.8C344.782 58.7 345.132 58.65 345.432 58.65C345.732 58.55 346.032 58.5 346.332 58.5C348.032 58.5 348.882 60.35 348.882 64.05C349.582 63.35 350.782 62.7 352.482 62.1C354.282 61.4 356.082 60.85 357.882 60.45C359.782 60.05 361.182 59.8 362.082 59.7C366.182 59.5 369.582 60.5 372.282 62.7C375.082 64.8 376.482 67.6 376.482 71.1C376.482 79.2 371.632 87.05 361.932 94.65C353.132 101.55 345.332 105 338.532 105C334.032 105 330.932 104.75 329.232 104.25C326.832 103.55 324.382 101.7 321.882 98.7C320.782 99.6 319.582 101.15 318.282 103.35C316.982 105.45 315.782 107.75 314.682 110.25C313.482 112.85 312.532 115.4 311.832 117.9C311.032 120.4 310.632 122.5 310.632 124.2C310.632 125.9 310.982 127.3 311.682 128.4C312.282 129.6 312.882 130.7 313.482 131.7C313.482 131.8 313.532 131.85 313.632 131.85C313.632 131.95 313.632 132 313.632 132C313.632 132.5 313.382 132.9 312.882 133.2C312.282 133.6 311.732 133.65 311.232 133.35ZM336.582 100.8C342.182 100.8 348.632 97.95 355.932 92.25C364.532 85.45 368.832 77.9 368.832 69.6C368.832 65.8 366.482 63.9 361.782 63.9C357.482 63.9 353.482 64.85 349.782 66.75C348.782 67.15 347.132 68.45 344.832 70.65C342.632 72.85 339.682 75.85 335.982 79.65C328.082 87.85 324.132 93.1 324.132 95.4C324.132 97.2 325.782 98.65 329.082 99.75C331.282 100.45 333.782 100.8 336.582 100.8ZM384.125 106.95C380.925 106.95 378.025 105.95 375.425 103.95C372.825 101.85 371.525 99.1 371.525 95.7C371.525 88.6 375.875 80.5 384.575 71.4C393.475 62.2 401.425 57.6 408.425 57.6C410.725 57.6 412.575 58.25 413.975 59.55C415.475 60.75 416.225 62.25 416.225 64.05C416.225 69.65 411.775 75.15 402.875 80.55C394.975 85.35 388.325 87.75 382.925 87.75C382.125 87.75 381.425 87.65 380.825 87.45C379.325 90.15 378.575 93 378.575 96C378.575 101.2 381.025 103.8 385.925 103.8C390.925 103.8 397.375 100.45 405.275 93.75C411.375 88.85 416.575 83.65 420.875 78.15C421.775 76.95 422.575 76.35 423.275 76.35C423.875 76.35 424.175 76.65 424.175 77.25C424.175 77.85 423.775 78.7 422.975 79.8C420.175 83.5 417.175 86.9 413.975 90C410.775 93.1 407.325 95.95 403.625 98.55C395.925 104.15 389.425 106.95 384.125 106.95ZM385.025 84.45C388.825 84.45 393.775 82.55 399.875 78.75C401.875 77.35 403.825 75.8 405.725 74.1C407.725 72.3 409.325 70.5 410.525 68.7C411.825 66.9 412.475 65.3 412.475 63.9C412.475 62.6 411.425 61.95 409.325 61.95C406.325 61.95 402.125 64.2 396.725 68.7C394.125 70.9 391.625 73.3 389.225 75.9C386.825 78.5 384.775 81.25 383.075 84.15C383.675 84.35 384.325 84.45 385.025 84.45ZM445.6 105.75C441.3 105.75 438.35 104.65 436.75 102.45C435.15 100.15 434.35 97.1 434.35 93.3C434.35 89.1 435.65 84.1 438.25 78.3C439.25 76 440.3 73.95 441.4 72.15C442.5 70.25 443.65 68.5 444.85 66.9C444.45 67 444.1 67.05 443.8 67.05C443.5 67.05 443.2 67.05 442.9 67.05C440.5 67.05 438.5 65.35 436.9 61.95L425.8 76.35C419.9 84.05 416.3 87.9 415 87.9C414.5 87.9 414.25 87.7 414.25 87.3C414.25 86.8 414.5 86.15 415 85.35C415.3 84.75 415.9 83.95 416.8 82.95C420.6 78.55 424.1 74.2 427.3 69.9C430.5 65.6 433.15 61.4 435.25 57.3C437.55 48.6 440.45 44.25 443.95 44.25C446.25 44.25 447.4 45.3 447.4 47.4C447.4 49.3 446.15 51.8 443.65 54.9C441.25 58 440.05 59.6 440.05 59.7C440.05 61.8 441.6 62.85 444.7 62.85C446.5 62.85 448.5 62.2 450.7 60.9L454.6 58.5C454.8 58.4 455.1 58.35 455.5 58.35C456.7 58.35 457.75 58.85 458.65 59.85C459.55 60.85 459.85 61.75 459.55 62.55L449.2 75.6C442.8 83.8 439.6 90.4 439.6 95.4C439.6 99.9 441.8 102.15 446.2 102.15C449.2 102.15 452.4 101.25 455.8 99.45C459.3 97.65 462.65 95.45 465.85 92.85C469.15 90.15 471.9 87.55 474.1 85.05L477.7 80.85C477.9 80.65 478.15 80.4 478.45 80.1C478.75 79.8 479 79.65 479.2 79.65C479.9 79.65 480.25 80 480.25 80.7C480.25 80.9 480.15 81.25 479.95 81.75C479.75 82.25 479.4 82.8 478.9 83.4L474.1 88.8C471.8 91.4 468.95 94.05 465.55 96.75C462.25 99.35 458.8 101.5 455.2 103.2C451.7 104.9 448.5 105.75 445.6 105.75Z" fill="white"/>
</g>
</g>
<defs>
<filter id="filter0_d_49_108" x="58.6167" y="7.5" width="427.633" height="134.3" filterUnits="userSpaceOnUse" color-interpolation-filters="sRGB">
<feFlood flood-opacity="0" result="BackgroundImageFix"/>
<feColorMatrix in="SourceAlpha" type="matrix" values="0 0 0 0 0 0 0 0 0 0 0 0 0 0 0 0 0 0 127 0" result="hardAlpha"/>
<feOffset dx="2" dy="4"/>
<feGaussianBlur stdDeviation="2"/>
<feComposite in2="hardAlpha" operator="out"/>
<feColorMatrix type="matrix" values="0 0 0 0 0 0 0 0 0 0 0 0 0 0 0 0 0 0 0.5 0"/>
<feBlend mode="normal" in2="BackgroundImageFix" result="effect1_dropShadow_49_108"/>
<feBlend mode="normal" in="SourceGraphic" in2="effect1_dropShadow_49_108" result="shape"/>
</filter>
<clipPath id="clip0_49_108">
<rect width="530" height="140" fill="white"/>
</clipPath>
</defs>
</svg>
