<svg width="640" height="217" viewBox="0 0 640 217" fill="none" xmlns="http://www.w3.org/2000/svg">
<g clip-path="url(#clip0_49_111)">
<path d="M47.1053 185V68.798H1.09526V35.2H135.273V68.798H89.4773V185H47.1053ZM224.511 187.996C212.527 187.996 201.471 186.07 191.341 182.218C181.212 178.366 172.367 172.945 164.805 165.954C157.387 158.821 151.609 150.546 147.471 141.13C143.334 131.714 141.265 121.371 141.265 110.1C141.265 98.8293 143.334 88.486 147.471 79.07C151.609 69.654 157.387 61.4507 164.805 54.46C172.367 47.3267 181.212 41.834 191.341 37.982C201.471 34.13 212.527 32.204 224.511 32.204C236.638 32.204 247.695 34.13 257.681 37.982C267.811 41.834 276.585 47.3267 284.003 54.46C291.422 61.4507 297.2 69.654 301.337 79.07C305.617 88.486 307.757 98.8293 307.757 110.1C307.757 121.371 305.617 131.785 301.337 141.344C297.2 150.76 291.422 158.963 284.003 165.954C276.585 172.945 267.811 178.366 257.681 182.218C247.695 186.07 236.638 187.996 224.511 187.996ZM224.511 152.9C230.218 152.9 235.497 151.901 240.347 149.904C245.341 147.907 249.621 145.053 253.187 141.344C256.897 137.492 259.75 132.927 261.747 127.648C263.887 122.369 264.957 116.52 264.957 110.1C264.957 103.537 263.887 97.688 261.747 92.552C259.75 87.2733 256.897 82.7793 253.187 79.07C249.621 75.218 245.341 72.2933 240.347 70.296C235.497 68.2987 230.218 67.3 224.511 67.3C218.805 67.3 213.455 68.2987 208.461 70.296C203.611 72.2933 199.331 75.218 195.621 79.07C192.055 82.7793 189.201 87.2733 187.061 92.552C185.064 97.688 184.065 103.537 184.065 110.1C184.065 116.52 185.064 122.369 187.061 127.648C189.201 132.927 192.055 137.492 195.621 141.344C199.331 145.053 203.611 147.907 208.461 149.904C213.455 151.901 218.805 152.9 224.511 152.9ZM329.95 185V35.2H364.832L447.436 134.924H430.958V35.2H472.474V185H437.592L354.988 85.276H371.466V185H329.95ZM540.24 185V121.656L550.084 147.122L483.102 35.2H527.828L576.192 116.306H550.298L598.876 35.2H639.964L573.196 147.122L582.612 121.656V185H540.24Z" fill="#244527"/>
</g>
<defs>
<clipPath id="clip0_49_111">
<rect width="640" height="217" fill="white"/>
</clipPath>
</defs>
</svg>
