<svg width="190" height="32" viewBox="0 0 190 32" fill="none" xmlns="http://www.w3.org/2000/svg">
<g clip-path="url(#clip0_49_47)">
<path d="M23.0077 27.833C21.2697 27.833 20.0597 27.371 19.3777 26.447C18.6957 25.523 18.3547 24.159 18.3547 22.355C18.3547 19.935 19.0587 17.559 20.4667 15.227C18.8387 14.193 18.0247 12.664 18.0247 10.64C18.0247 8.198 19.1027 6.031 21.2587 4.139C23.6787 2.005 26.8027 0.937998 30.6307 0.937998C31.8407 0.937998 32.9077 1.015 33.8317 1.169C34.7557 1.301 35.6357 1.51 36.4717 1.796C37.3297 2.082 38.2427 2.445 39.2107 2.885C40.1787 3.325 41.3227 3.853 42.6427 4.469C45.8547 5.921 48.2087 6.647 49.7047 6.647C50.4307 6.647 51.0577 6.482 51.5857 6.152C52.1137 5.8 52.3777 5.371 52.3777 4.865C52.3777 4.535 52.2347 4.238 51.9487 3.974C51.7947 3.754 51.7177 3.6 51.7177 3.512C51.7177 3.468 51.7397 3.446 51.7837 3.446C51.9597 3.446 52.2017 3.633 52.5097 4.007C52.8177 4.381 52.9717 4.788 52.9717 5.228C52.9717 5.712 52.7847 6.13 52.4107 6.482C52.0587 6.834 51.5967 7.109 51.0247 7.307C50.4747 7.483 49.9027 7.571 49.3087 7.571C47.6587 7.571 45.2277 6.834 42.0157 5.36C40.8277 4.81 39.8047 4.348 38.9467 3.974C38.0887 3.578 37.2967 3.259 36.5707 3.017C35.8447 2.753 35.1187 2.566 34.3927 2.456C33.6887 2.324 32.8967 2.258 32.0167 2.258C27.4627 2.258 23.8767 3.732 21.2587 6.68C20.9727 6.988 20.6977 7.439 20.4337 8.033C20.1697 8.605 19.9497 9.21 19.7737 9.848C19.6197 10.486 19.5427 11.058 19.5427 11.564C19.5427 12.84 19.9937 13.83 20.8957 14.534C21.5997 13.5 22.4137 12.576 23.3377 11.762C24.2837 10.926 25.2957 10.266 26.3737 9.782C27.4517 9.298 28.5627 9.056 29.7067 9.056C31.6867 9.056 32.6767 9.826 32.6767 11.366C32.6767 13.214 31.5877 15.227 29.4097 17.405C27.2537 19.561 25.2517 20.639 23.4037 20.639C22.2157 20.639 21.6217 20.133 21.6217 19.121C21.6217 18.769 21.7097 18.461 21.8857 18.197C22.0837 17.933 22.3147 17.834 22.5787 17.9C22.5787 18.01 22.5677 18.153 22.5457 18.329C22.5237 18.483 22.5127 18.593 22.5127 18.659C22.5127 18.989 23.0187 19.154 24.0307 19.154C25.5267 19.154 27.1327 18.362 28.8487 16.778C29.6847 15.986 30.3997 15.106 30.9937 14.138C31.6097 13.17 31.9177 12.268 31.9177 11.432C31.9177 10.442 31.2797 9.947 30.0037 9.947C29.0797 9.947 28.1447 10.2 27.1987 10.706C26.2747 11.212 25.3947 11.872 24.5587 12.686C23.7227 13.478 22.9637 14.325 22.2817 15.227C22.3917 15.271 22.5347 15.315 22.7107 15.359C22.8867 15.403 23.0847 15.447 23.3047 15.491L25.2847 15.557C26.2527 15.601 26.7367 15.711 26.7367 15.887C26.7367 16.195 26.2967 16.349 25.4167 16.349C25.0207 16.349 24.6357 16.338 24.2617 16.316C23.9097 16.294 23.5687 16.261 23.2387 16.217C22.9967 16.173 22.7547 16.129 22.5127 16.085C22.2927 16.019 22.0727 15.942 21.8527 15.854C20.1587 18.45 19.3117 20.837 19.3117 23.015C19.3117 25.831 20.4007 27.239 22.5787 27.239C25.0427 27.239 27.6057 25.523 30.2677 22.091L36.7357 12.455C39.0897 8.957 41.1907 7.153 43.0387 7.043L44.2927 7.34C44.6887 7.538 44.8867 7.934 44.8867 8.528C44.8867 8.836 44.7767 8.99 44.5567 8.99C44.4907 8.99 44.3257 8.968 44.0617 8.924C43.8197 8.858 43.6327 8.825 43.5007 8.825C41.9387 8.825 39.9917 10.464 37.6597 13.742L31.0927 22.916C28.2767 26.194 25.5817 27.833 23.0077 27.833ZM40.667 24.566C40.117 24.566 39.688 24.313 39.38 23.807C39.072 23.279 38.918 22.773 38.918 22.289C38.918 20.969 39.875 19.121 41.789 16.745C43.725 14.347 45.287 13.148 46.475 13.148C47.597 13.148 48.158 13.742 48.158 14.93C48.158 15.106 48.136 15.293 48.092 15.491C48.07 15.689 48.037 15.898 47.993 16.118C48.037 16.184 48.147 16.217 48.323 16.217C48.917 16.217 49.621 16.008 50.435 15.59C50.413 15.964 49.544 16.503 47.828 17.207C48.07 17.933 47.344 19.319 45.65 21.365C43.912 23.499 42.427 24.566 41.195 24.566H40.667ZM41.261 23.576C42.207 23.576 43.417 22.707 44.891 20.969C46.321 19.275 47.036 18.054 47.036 17.306C46.684 17.108 46.244 16.602 45.716 15.788C44.968 15.788 43.89 16.69 42.482 18.494C41.096 20.254 40.425 21.607 40.469 22.553C40.491 23.235 40.755 23.576 41.261 23.576ZM56.9443 24.566C56.3503 24.566 55.9323 24.401 55.6903 24.071C55.4483 23.719 55.3273 23.29 55.3273 22.784C55.3273 21.508 55.7673 20.144 56.6473 18.692L58.7593 15.26C57.2633 16.36 55.7783 17.735 54.3043 19.385C53.9083 19.825 53.4573 20.342 52.9513 20.936C52.4673 21.53 51.9283 22.212 51.3343 22.982C50.5423 24.016 50.0693 24.533 49.9153 24.533C49.6073 24.533 49.3543 24.401 49.1563 24.137C48.9583 23.851 48.8593 23.598 48.8593 23.378C48.8593 23.202 48.9143 22.883 49.0243 22.421C49.1343 21.937 49.2663 21.519 49.4203 21.167C49.5743 20.793 49.7283 20.43 49.8823 20.078C50.0583 19.704 50.2233 19.341 50.3773 18.989L48.3973 21.068C48.3533 21.112 48.2213 21.244 48.0013 21.464C47.7813 21.684 47.6053 21.794 47.4733 21.794C47.3633 21.794 47.3083 21.717 47.3083 21.563C47.3083 21.519 47.3303 21.464 47.3743 21.398C47.3963 21.31 47.4623 21.211 47.5723 21.101C47.9023 20.771 48.2433 20.419 48.5953 20.045C48.9473 19.671 49.3103 19.242 49.6843 18.758C49.8823 18.516 50.1793 18.153 50.5753 17.669C50.9713 17.163 51.4003 16.624 51.8623 16.052C52.3463 15.48 52.7973 14.952 53.2153 14.468C53.3253 14.314 53.4463 14.215 53.5783 14.171C53.7103 14.105 53.7983 14.072 53.8423 14.072C54.4363 14.072 54.7333 14.303 54.7333 14.765C54.7333 14.897 54.7003 15.029 54.6343 15.161C52.6543 17.889 51.4663 19.968 51.0703 21.398C53.6223 18.846 55.6683 16.932 57.2083 15.656C58.7703 14.358 59.8813 13.709 60.5413 13.709C60.8933 13.709 61.1573 13.764 61.3333 13.874C61.5313 13.984 61.6303 14.193 61.6303 14.501C61.6303 14.611 61.6193 14.699 61.5973 14.765C61.5313 14.919 61.0803 15.535 60.2443 16.613C59.7383 17.229 59.2873 17.79 58.8913 18.296C58.5173 18.802 58.2093 19.242 57.9673 19.616C57.5713 20.232 57.2743 20.815 57.0763 21.365C56.8783 21.893 56.7793 22.344 56.7793 22.718C56.7793 22.872 56.8013 23.059 56.8453 23.279C56.8893 23.499 57.0213 23.609 57.2413 23.609C57.7473 23.609 58.5393 23.169 59.6173 22.289C60.1233 21.849 60.5963 21.409 61.0363 20.969C61.4763 20.507 61.8943 20.056 62.2903 19.616C62.3783 19.528 62.5213 19.363 62.7193 19.121C62.9173 18.857 63.0383 18.725 63.0823 18.725C63.1703 18.725 63.2143 18.813 63.2143 18.989C63.2143 19.077 63.1593 19.231 63.0493 19.451C62.9613 19.649 62.8623 19.803 62.7523 19.913C62.5103 20.199 62.1473 20.595 61.6633 21.101C61.2013 21.607 60.6733 22.124 60.0793 22.652C59.5073 23.18 58.9463 23.631 58.3963 24.005C57.8463 24.379 57.3623 24.566 56.9443 24.566ZM62.5979 31.265C61.8939 31.265 61.2779 30.968 60.7499 30.374C60.2219 29.758 59.9689 29.076 59.9909 28.328C60.2549 28.658 60.6069 29.043 61.0469 29.483C61.6189 30.033 62.1799 30.308 62.7299 30.308C63.9839 30.308 65.3369 29.307 66.7889 27.305C67.2949 26.601 67.8119 25.776 68.3399 24.83C68.8899 23.906 69.4069 22.872 69.8909 21.728L71.1449 18.692L66.2939 22.487C64.7979 23.653 63.5989 24.236 62.6969 24.236C62.2129 24.236 61.8279 24.06 61.5419 23.708C61.2559 23.356 61.1129 22.993 61.1129 22.619C61.1129 21.673 61.9269 20.122 63.5549 17.966C65.1829 15.788 66.4039 14.699 67.2179 14.699C67.8999 14.699 68.2409 14.952 68.2409 15.458C68.2409 15.656 67.2619 16.8 65.3039 18.89C63.3679 20.958 62.3999 22.355 62.3999 23.081C62.3999 23.367 62.5869 23.51 62.9609 23.51C63.6649 23.51 65.1939 22.597 67.5479 20.771C68.5159 20.001 69.3739 19.297 70.1219 18.659C70.8699 18.021 71.4969 17.449 72.0029 16.943C72.1789 16.723 72.3549 16.514 72.5309 16.316C72.7069 16.096 72.8719 15.876 73.0259 15.656C73.4439 15.172 73.8619 14.93 74.2799 14.93C74.8739 14.93 75.1709 15.172 75.1709 15.656C75.1709 15.744 74.7089 16.47 73.7849 17.834C73.3009 18.582 72.9159 19.165 72.6299 19.583C72.3439 19.979 72.1789 20.232 72.1349 20.342C71.4529 21.662 70.4079 23.587 68.9999 26.117C66.8659 29.549 64.7319 31.265 62.5979 31.265ZM89.2737 26.645C86.8317 26.645 84.9397 25.996 83.5977 24.698C82.2777 23.4 81.6177 21.717 81.6177 19.649C81.6177 17.757 82.0797 15.909 83.0037 14.105C83.9497 12.301 85.1377 10.64 86.5677 9.122C87.7337 7.89 89.0647 6.823 90.5607 5.921C92.0787 5.019 93.6627 4.315 95.3127 3.809C96.9847 3.303 98.6127 3.05 100.197 3.05C101.451 3.05 102.584 3.226 103.596 3.578C104.608 3.908 105.411 4.436 106.005 5.162C106.599 5.888 106.896 6.834 106.896 8C106.896 9.034 106.643 10.002 106.137 10.904C105.653 11.784 104.993 12.554 104.157 13.214C103.343 13.874 102.441 14.391 101.451 14.765C100.461 15.139 99.4597 15.326 98.4477 15.326C97.1277 15.326 96.0167 15.029 95.1147 14.435C94.2127 13.819 93.7617 13.049 93.7617 12.125C93.7617 10.937 94.5207 9.771 96.0387 8.627C96.3027 8.429 96.5117 8.33 96.6657 8.33C96.7757 8.33 96.8307 8.374 96.8307 8.462C96.8307 8.682 96.6547 8.858 96.3027 8.99C95.0707 9.98 94.4547 10.981 94.4547 11.993C94.4547 12.719 94.7847 13.335 95.4447 13.841C96.1047 14.325 96.9297 14.567 97.9197 14.567C98.7997 14.567 99.6797 14.38 100.56 14.006C101.462 13.632 102.287 13.126 103.035 12.488C103.783 11.85 104.377 11.135 104.817 10.343C105.279 9.529 105.51 8.682 105.51 7.802C105.51 6.372 105.026 5.327 104.058 4.667C103.09 4.007 101.858 3.677 100.362 3.677C98.6677 3.677 96.9847 3.996 95.3127 4.634C93.6627 5.272 92.1117 6.152 90.6597 7.274C89.2077 8.396 87.9097 9.683 86.7657 11.135C84.4777 14.017 83.3337 16.723 83.3337 19.253C83.3337 20.595 83.6417 21.739 84.2577 22.685C84.8737 23.609 85.7207 24.313 86.7987 24.797C87.8987 25.281 89.1527 25.523 90.5607 25.523C92.6507 25.523 94.6747 25.072 96.6327 24.17C98.5907 23.246 100.263 22.014 101.649 20.474C102.023 20.078 102.298 19.88 102.474 19.88C102.606 19.88 102.672 19.979 102.672 20.177C102.672 20.441 102.551 20.694 102.309 20.936C101.561 21.728 100.67 22.465 99.6357 23.147C98.6017 23.829 97.4907 24.434 96.3027 24.962C95.1367 25.49 93.9487 25.897 92.7387 26.183C91.5287 26.491 90.3737 26.645 89.2737 26.645ZM103.648 24.665C103.01 24.665 102.691 24.478 102.691 24.104C102.691 23.884 102.823 23.532 103.087 23.048C104.099 21.244 105.001 19.649 105.793 18.263C106.607 16.855 107.322 15.667 107.938 14.699C110.556 10.497 112.404 8.22 113.482 7.868C113.526 7.868 113.559 7.868 113.581 7.868C113.603 7.846 113.625 7.835 113.647 7.835C113.933 7.835 114.12 8.066 114.208 8.528C114.142 8.99 112.998 10.662 110.776 13.544C109.61 15.018 108.697 16.239 108.037 17.207C107.399 18.153 107.003 18.846 106.849 19.286C107.575 18.758 108.356 18.197 109.192 17.603C110.028 17.009 110.842 16.448 111.634 15.92C112.426 15.37 113.141 14.93 113.779 14.6C114.417 14.248 114.912 14.05 115.264 14.006C115.308 14.006 115.363 14.006 115.429 14.006C115.495 13.984 115.539 13.973 115.561 13.973C116.177 13.973 116.485 14.259 116.485 14.831C116.485 14.985 116.287 15.326 115.891 15.854C115.495 16.382 114.89 17.196 114.076 18.296C112.624 20.232 111.898 21.684 111.898 22.652C111.898 23.158 112.085 23.411 112.459 23.411C112.855 23.389 113.306 23.213 113.812 22.883C114.34 22.553 114.868 22.146 115.396 21.662C115.924 21.178 116.397 20.705 116.815 20.243C117.255 19.759 117.585 19.385 117.805 19.121C118.003 18.923 118.157 18.824 118.267 18.824C118.355 18.824 118.399 18.868 118.399 18.956C118.399 19.132 118.311 19.341 118.135 19.583C117.871 19.913 117.475 20.342 116.947 20.87C116.441 21.398 115.88 21.937 115.264 22.487C114.67 23.015 114.098 23.466 113.548 23.84C113.02 24.192 112.624 24.368 112.36 24.368C111.062 24.368 110.413 23.609 110.413 22.091C110.413 21.233 110.809 20.111 111.601 18.725C111.909 18.197 112.228 17.669 112.558 17.141C112.888 16.613 113.218 16.085 113.548 15.557C110.732 16.965 108.18 19.044 105.892 21.794C105.606 22.19 105.309 22.619 105.001 23.081C104.693 23.521 104.418 23.895 104.176 24.203C103.934 24.511 103.758 24.665 103.648 24.665ZM118.365 24.566C117.815 24.566 117.386 24.313 117.078 23.807C116.77 23.279 116.616 22.773 116.616 22.289C116.616 20.969 117.573 19.121 119.487 16.745C121.423 14.347 122.985 13.148 124.173 13.148C125.295 13.148 125.856 13.742 125.856 14.93C125.856 15.106 125.834 15.293 125.79 15.491C125.768 15.689 125.735 15.898 125.691 16.118C125.735 16.184 125.845 16.217 126.021 16.217C126.615 16.217 127.319 16.008 128.133 15.59C128.111 15.964 127.242 16.503 125.526 17.207C125.768 17.933 125.042 19.319 123.348 21.365C121.61 23.499 120.125 24.566 118.893 24.566H118.365ZM118.959 23.576C119.905 23.576 121.115 22.707 122.589 20.969C124.019 19.275 124.734 18.054 124.734 17.306C124.382 17.108 123.942 16.602 123.414 15.788C122.666 15.788 121.588 16.69 120.18 18.494C118.794 20.254 118.123 21.607 118.167 22.553C118.189 23.235 118.453 23.576 118.959 23.576ZM124.314 30.737C123.39 30.231 122.928 29.274 122.928 27.866C122.928 26.348 124.171 23.752 126.657 20.078C129.033 16.536 130.683 14.622 131.607 14.336C131.695 14.314 131.772 14.303 131.838 14.303C131.904 14.281 131.97 14.27 132.036 14.27C132.41 14.27 132.597 14.677 132.597 15.491C132.751 15.337 133.015 15.194 133.389 15.062C133.785 14.908 134.181 14.787 134.577 14.699C134.995 14.611 135.303 14.556 135.501 14.534C136.403 14.49 137.151 14.71 137.745 15.194C138.361 15.656 138.669 16.272 138.669 17.042C138.669 18.824 137.602 20.551 135.468 22.223C133.532 23.741 131.816 24.5 130.32 24.5C129.33 24.5 128.648 24.445 128.274 24.335C127.746 24.181 127.207 23.774 126.657 23.114C126.415 23.312 126.151 23.653 125.865 24.137C125.579 24.599 125.315 25.105 125.073 25.655C124.809 26.227 124.6 26.788 124.446 27.338C124.27 27.888 124.182 28.35 124.182 28.724C124.182 29.098 124.259 29.406 124.413 29.648C124.545 29.912 124.677 30.154 124.809 30.374C124.809 30.396 124.82 30.407 124.842 30.407C124.842 30.429 124.842 30.44 124.842 30.44C124.842 30.55 124.787 30.638 124.677 30.704C124.545 30.792 124.424 30.803 124.314 30.737ZM129.891 23.576C131.123 23.576 132.542 22.949 134.148 21.695C136.04 20.199 136.986 18.538 136.986 16.712C136.986 15.876 136.469 15.458 135.435 15.458C134.489 15.458 133.609 15.667 132.795 16.085C132.575 16.173 132.212 16.459 131.706 16.943C131.222 17.427 130.573 18.087 129.759 18.923C128.021 20.727 127.152 21.882 127.152 22.388C127.152 22.784 127.515 23.103 128.241 23.345C128.725 23.499 129.275 23.576 129.891 23.576ZM136.753 30.737C135.829 30.231 135.367 29.274 135.367 27.866C135.367 26.348 136.61 23.752 139.096 20.078C141.472 16.536 143.122 14.622 144.046 14.336C144.134 14.314 144.211 14.303 144.277 14.303C144.343 14.281 144.409 14.27 144.475 14.27C144.849 14.27 145.036 14.677 145.036 15.491C145.19 15.337 145.454 15.194 145.828 15.062C146.224 14.908 146.62 14.787 147.016 14.699C147.434 14.611 147.742 14.556 147.94 14.534C148.842 14.49 149.59 14.71 150.184 15.194C150.8 15.656 151.108 16.272 151.108 17.042C151.108 18.824 150.041 20.551 147.907 22.223C145.971 23.741 144.255 24.5 142.759 24.5C141.769 24.5 141.087 24.445 140.713 24.335C140.185 24.181 139.646 23.774 139.096 23.114C138.854 23.312 138.59 23.653 138.304 24.137C138.018 24.599 137.754 25.105 137.512 25.655C137.248 26.227 137.039 26.788 136.885 27.338C136.709 27.888 136.621 28.35 136.621 28.724C136.621 29.098 136.698 29.406 136.852 29.648C136.984 29.912 137.116 30.154 137.248 30.374C137.248 30.396 137.259 30.407 137.281 30.407C137.281 30.429 137.281 30.44 137.281 30.44C137.281 30.55 137.226 30.638 137.116 30.704C136.984 30.792 136.863 30.803 136.753 30.737ZM142.33 23.576C143.562 23.576 144.981 22.949 146.587 21.695C148.479 20.199 149.425 18.538 149.425 16.712C149.425 15.876 148.908 15.458 147.874 15.458C146.928 15.458 146.048 15.667 145.234 16.085C145.014 16.173 144.651 16.459 144.145 16.943C143.661 17.427 143.012 18.087 142.198 18.923C140.46 20.727 139.591 21.882 139.591 22.388C139.591 22.784 139.954 23.103 140.68 23.345C141.164 23.499 141.714 23.576 142.33 23.576ZM152.789 24.929C152.085 24.929 151.447 24.709 150.875 24.269C150.303 23.807 150.017 23.202 150.017 22.454C150.017 20.892 150.974 19.11 152.888 17.108C154.846 15.084 156.595 14.072 158.135 14.072C158.641 14.072 159.048 14.215 159.356 14.501C159.686 14.765 159.851 15.095 159.851 15.491C159.851 16.723 158.872 17.933 156.914 19.121C155.176 20.177 153.713 20.705 152.525 20.705C152.349 20.705 152.195 20.683 152.063 20.639C151.733 21.233 151.568 21.86 151.568 22.52C151.568 23.664 152.107 24.236 153.185 24.236C154.285 24.236 155.704 23.499 157.442 22.025C158.784 20.947 159.928 19.803 160.874 18.593C161.072 18.329 161.248 18.197 161.402 18.197C161.534 18.197 161.6 18.263 161.6 18.395C161.6 18.527 161.512 18.714 161.336 18.956C160.72 19.77 160.06 20.518 159.356 21.2C158.652 21.882 157.893 22.509 157.079 23.081C155.385 24.313 153.955 24.929 152.789 24.929ZM152.987 19.979C153.823 19.979 154.912 19.561 156.254 18.725C156.694 18.417 157.123 18.076 157.541 17.702C157.981 17.306 158.333 16.91 158.597 16.514C158.883 16.118 159.026 15.766 159.026 15.458C159.026 15.172 158.795 15.029 158.333 15.029C157.673 15.029 156.749 15.524 155.561 16.514C154.989 16.998 154.439 17.526 153.911 18.098C153.383 18.67 152.932 19.275 152.558 19.913C152.69 19.957 152.833 19.979 152.987 19.979ZM166.314 24.665C165.368 24.665 164.719 24.423 164.367 23.939C164.015 23.433 163.839 22.762 163.839 21.926C163.839 21.002 164.125 19.902 164.697 18.626C164.917 18.12 165.148 17.669 165.39 17.273C165.632 16.855 165.885 16.47 166.149 16.118C166.061 16.14 165.984 16.151 165.918 16.151C165.852 16.151 165.786 16.151 165.72 16.151C165.192 16.151 164.752 15.777 164.4 15.029L161.958 18.197C160.66 19.891 159.868 20.738 159.582 20.738C159.472 20.738 159.417 20.694 159.417 20.606C159.417 20.496 159.472 20.353 159.582 20.177C159.648 20.045 159.78 19.869 159.978 19.649C160.814 18.681 161.584 17.724 162.288 16.778C162.992 15.832 163.575 14.908 164.037 14.006C164.543 12.092 165.181 11.135 165.951 11.135C166.457 11.135 166.71 11.366 166.71 11.828C166.71 12.246 166.435 12.796 165.885 13.478C165.357 14.16 165.093 14.512 165.093 14.534C165.093 14.996 165.434 15.227 166.116 15.227C166.512 15.227 166.952 15.084 167.436 14.798L168.294 14.27C168.338 14.248 168.404 14.237 168.492 14.237C168.756 14.237 168.987 14.347 169.185 14.567C169.383 14.787 169.449 14.985 169.383 15.161L167.106 18.032C165.698 19.836 164.994 21.288 164.994 22.388C164.994 23.378 165.478 23.873 166.446 23.873C167.106 23.873 167.81 23.675 168.558 23.279C169.328 22.883 170.065 22.399 170.769 21.827C171.495 21.233 172.1 20.661 172.584 20.111L173.376 19.187C173.42 19.143 173.475 19.088 173.541 19.022C173.607 18.956 173.662 18.923 173.706 18.923C173.86 18.923 173.937 19 173.937 19.154C173.937 19.198 173.915 19.275 173.871 19.385C173.827 19.495 173.75 19.616 173.64 19.748L172.584 20.936C172.078 21.508 171.451 22.091 170.703 22.685C169.977 23.257 169.218 23.73 168.426 24.104C167.656 24.478 166.952 24.665 166.314 24.665Z" fill="white"/>
</g>
<defs>
<clipPath id="clip0_49_47">
<rect width="190" height="32" fill="white"/>
</clipPath>
</defs>
</svg>
